<?xml version="1.0" encoding="utf-8"?>
<!-- Generator: Adobe Illustrator 27.5.0, SVG Export Plug-In . SVG Version: 6.00 Build 0)  -->
<svg version="1.1" xmlns="http://www.w3.org/2000/svg" xmlns:xlink="http://www.w3.org/1999/xlink" x="0px" y="0px"
	 viewBox="0 0 500 500" style="enable-background:new 0 0 500 500;" xml:space="preserve">
<g id="Background_Simple">
	<g>
		<path style="fill:#C6FF00;" d="M228.162,475.952c0,0,75.675,12.15,135.056-41.042c59.381-53.192,75.694-139.671,90.759-209.321
			c15.065-69.649-16.955-131.585-76.121-151.439c-59.165-19.854-84.751,30.642-157.725,46.599
			c-72.974,15.957-95.179,8.982-146.468,62.709c-51.289,53.727-39.47,155.594,25.515,220.384
			C164.164,468.632,228.162,475.952,228.162,475.952z"/>
		<path style="opacity:0.7;fill:#FFFFFF;" d="M228.162,475.952c0,0,75.675,12.15,135.056-41.042
			c59.381-53.192,75.694-139.671,90.759-209.321c15.065-69.649-16.955-131.585-76.121-151.439
			c-59.165-19.854-84.751,30.642-157.725,46.599c-72.974,15.957-95.179,8.982-146.468,62.709
			c-51.289,53.727-39.47,155.594,25.515,220.384C164.164,468.632,228.162,475.952,228.162,475.952z"/>
	</g>
</g>
<g id="Lamp">
	<g>
		<g>
			<path style="fill:#263238;" d="M425.835,119.995c-2.829-9.195-14.036-13.754-21.985-17.2c-3.725-1.614-4.795-4.505-5.067-8.443
				c-0.03-0.433,0.018-2.97,0.094-5.465h-3.591h-8.628h-3.591c0.075,2.494,0.123,5.032,0.094,5.465
				c-0.272,3.938-1.343,6.829-5.067,8.443c-7.949,3.445-19.156,8.005-21.985,17.2c-0.823,2.674-1.045,5.119-1,7.157h31.55h8.628
				h31.55C426.88,125.114,426.657,122.669,425.835,119.995z"/>
			<rect x="389.901" y="37.886" style="fill:#263238;" width="2.139" height="52.47"/>
		</g>
		
			<line style="fill:none;stroke:#263238;stroke-linecap:round;stroke-linejoin:round;stroke-miterlimit:10;" x1="353.84" y1="132.204" x2="339.524" y2="165.048"/>
		
			<line style="fill:none;stroke:#263238;stroke-linecap:round;stroke-linejoin:round;stroke-miterlimit:10;" x1="427.971" y1="132.204" x2="442.287" y2="165.048"/>
		
			<line style="fill:none;stroke:#263238;stroke-linecap:round;stroke-linejoin:round;stroke-miterlimit:10;" x1="361.987" y1="130.954" x2="358.193" y2="143.856"/>
		
			<line style="fill:none;stroke:#263238;stroke-linecap:round;stroke-linejoin:round;stroke-miterlimit:10;" x1="418.907" y1="131.524" x2="422.702" y2="144.236"/>
		
			<line style="fill:none;stroke:#263238;stroke-linecap:round;stroke-linejoin:round;stroke-miterlimit:10;" x1="414.923" y1="139.682" x2="418.148" y2="151.635"/>
		
			<line style="fill:none;stroke:#263238;stroke-linecap:round;stroke-linejoin:round;stroke-miterlimit:10;" x1="377.925" y1="139.682" x2="376.407" y2="150.876"/>
	</g>
</g>
<g id="Icons">
	<g>
		<g>
			<polyline style="fill:none;stroke:#263238;stroke-linecap:round;stroke-linejoin:round;stroke-miterlimit:10;" points="
				185.899,154.398 211.225,154.398 211.225,178.639 183.728,178.639 			"/>
			<polyline style="fill:none;stroke:#263238;stroke-linecap:round;stroke-linejoin:round;stroke-miterlimit:10;" points="
				215.929,204.146 235.105,204.146 235.105,165.252 217.014,165.252 			"/>
			
				<rect x="173.597" y="150.418" style="fill:#C6FF00;stroke:#263238;stroke-linecap:round;stroke-linejoin:round;stroke-miterlimit:10;" width="15.919" height="9.045"/>
			
				<rect x="203.266" y="161.272" style="fill:#C6FF00;stroke:#263238;stroke-linecap:round;stroke-linejoin:round;stroke-miterlimit:10;" width="15.92" height="9.045"/>
			
				<rect x="207.969" y="199.624" style="fill:#C6FF00;stroke:#263238;stroke-linecap:round;stroke-linejoin:round;stroke-miterlimit:10;" width="15.92" height="9.045"/>
			
				<rect x="173.597" y="172.126" style="fill:#C6FF00;stroke:#263238;stroke-linecap:round;stroke-linejoin:round;stroke-miterlimit:10;" width="15.919" height="9.045"/>
		</g>
		<g>
			<path style="fill:#FFFFFF;stroke:#263238;stroke-linecap:round;stroke-linejoin:round;stroke-miterlimit:10;" d="
				M247.778,263.182h-58c-2.025,0-3.667-1.642-3.667-3.667v-31.333c0-2.025,1.642-3.667,3.667-3.667h58
				c2.025,0,3.667,1.642,3.667,3.667v31.333C251.445,261.541,249.803,263.182,247.778,263.182z"/>
			
				<rect x="186.111" y="231.849" style="fill:#C6FF00;stroke:#263238;stroke-linecap:round;stroke-linejoin:round;stroke-miterlimit:10;" width="65.333" height="14"/>
			<path style="fill:#FFFFFF;stroke:#263238;stroke-linecap:round;stroke-linejoin:round;stroke-miterlimit:10;" d="M237.653,257.01
				c0-1.509-1.223-2.733-2.733-2.733c-1.509,0-2.733,1.223-2.733,2.733c0,1.509,1.224,2.733,2.733,2.733
				C236.43,259.742,237.653,258.519,237.653,257.01z"/>
			<path style="fill:#FFFFFF;stroke:#263238;stroke-linecap:round;stroke-linejoin:round;stroke-miterlimit:10;" d="M245.244,257.01
				c0-1.509-1.223-2.733-2.733-2.733c-1.509,0-2.733,1.223-2.733,2.733c0,1.509,1.223,2.733,2.733,2.733
				C244.02,259.742,245.244,258.519,245.244,257.01z"/>
		</g>
		<g>
			
				<rect x="82.308" y="188.584" style="fill:#FFFFFF;stroke:#263238;stroke-linecap:round;stroke-linejoin:round;stroke-miterlimit:10;" width="78.166" height="40.725"/>
			
				<rect x="82.308" y="188.584" style="fill:#263238;stroke:#263238;stroke-linecap:round;stroke-linejoin:round;stroke-miterlimit:10;" width="78.166" height="7.215"/>
			
				<rect x="94.072" y="204.466" style="fill:#C6FF00;stroke:#263238;stroke-linecap:round;stroke-linejoin:round;stroke-miterlimit:10;" width="54.637" height="11.681"/>
			<g>
				<path style="fill:#263238;" d="M98.422,208.366h0.938l-0.141,1.6l1.324-1.008l0.475,0.814l-1.506,0.738l1.506,0.779l-0.475,0.82
					l-1.324-1.043l0.141,1.629h-0.938l0.176-1.658l-1.33,1.031l-0.469-0.82l1.465-0.738l-1.5-0.697l0.475-0.814l1.354,0.984
					L98.422,208.366z"/>
				<path style="fill:#263238;" d="M104.047,208.366h0.938l-0.141,1.6l1.324-1.008l0.475,0.814l-1.506,0.738l1.506,0.779
					l-0.475,0.82l-1.324-1.043l0.141,1.629h-0.938l0.176-1.658l-1.33,1.031l-0.469-0.82l1.465-0.738l-1.5-0.697l0.475-0.814
					l1.354,0.984L104.047,208.366z"/>
				<path style="fill:#263238;" d="M109.672,208.366h0.938l-0.141,1.6l1.324-1.008l0.475,0.814l-1.506,0.738l1.506,0.779
					l-0.475,0.82l-1.324-1.043l0.141,1.629h-0.938l0.176-1.658l-1.33,1.031l-0.469-0.82l1.465-0.738l-1.5-0.697l0.475-0.814
					l1.354,0.984L109.672,208.366z"/>
				<path style="fill:#263238;" d="M115.297,208.366h0.938l-0.141,1.6l1.324-1.008l0.475,0.814l-1.506,0.738l1.506,0.779
					l-0.475,0.82l-1.324-1.043l0.141,1.629h-0.938l0.176-1.658l-1.33,1.031l-0.469-0.82l1.465-0.738l-1.5-0.697l0.475-0.814
					l1.354,0.984L115.297,208.366z"/>
				<path style="fill:#263238;" d="M120.922,208.366h0.938l-0.141,1.6l1.324-1.008l0.475,0.814l-1.506,0.738l1.506,0.779
					l-0.475,0.82l-1.324-1.043l0.141,1.629h-0.938l0.176-1.658l-1.33,1.031l-0.469-0.82l1.465-0.738l-1.5-0.697l0.475-0.814
					l1.354,0.984L120.922,208.366z"/>
				<path style="fill:#263238;" d="M126.547,208.366h0.938l-0.141,1.6l1.324-1.008l0.475,0.814l-1.506,0.738l1.506,0.779
					l-0.475,0.82l-1.324-1.043l0.141,1.629h-0.938l0.176-1.658l-1.33,1.031l-0.469-0.82l1.465-0.738l-1.5-0.697l0.475-0.814
					l1.354,0.984L126.547,208.366z"/>
				<path style="fill:#263238;" d="M132.172,208.366h0.938l-0.141,1.6l1.324-1.008l0.475,0.814l-1.506,0.738l1.506,0.779
					l-0.475,0.82l-1.324-1.043l0.141,1.629h-0.938l0.176-1.658l-1.33,1.031l-0.469-0.82l1.465-0.738l-1.5-0.697l0.475-0.814
					l1.354,0.984L132.172,208.366z"/>
				<path style="fill:#263238;" d="M137.797,208.366h0.938l-0.141,1.6l1.324-1.008l0.475,0.814l-1.506,0.738l1.506,0.779
					l-0.475,0.82l-1.324-1.043l0.141,1.629h-0.938l0.176-1.658l-1.33,1.031l-0.469-0.82l1.465-0.738l-1.5-0.697l0.475-0.814
					l1.354,0.984L137.797,208.366z"/>
				<path style="fill:#263238;" d="M143.422,208.366h0.938l-0.141,1.6l1.324-1.008l0.475,0.814l-1.506,0.738l1.506,0.779
					l-0.475,0.82l-1.324-1.043l0.141,1.629h-0.938l0.176-1.658l-1.33,1.031l-0.469-0.82l1.465-0.738l-1.5-0.697l0.475-0.814
					l1.354,0.984L143.422,208.366z"/>
			</g>
		</g>
		<g>
			
				<line style="fill:none;stroke:#263238;stroke-width:0.5;stroke-linecap:round;stroke-linejoin:round;stroke-miterlimit:10;" x1="251.748" y1="177.915" x2="266.582" y2="177.915"/>
			
				<line style="fill:none;stroke:#263238;stroke-width:0.5;stroke-linecap:round;stroke-linejoin:round;stroke-miterlimit:10;" x1="251.748" y1="182.257" x2="266.582" y2="182.257"/>
			
				<line style="fill:none;stroke:#263238;stroke-width:0.5;stroke-linecap:round;stroke-linejoin:round;stroke-miterlimit:10;" x1="251.748" y1="186.598" x2="266.582" y2="186.598"/>
			
				<line style="fill:none;stroke:#263238;stroke-width:0.5;stroke-linecap:round;stroke-linejoin:round;stroke-miterlimit:10;" x1="251.748" y1="190.94" x2="266.582" y2="190.94"/>
		</g>
		<g>
			
				<line style="fill:none;stroke:#263238;stroke-width:0.5;stroke-linecap:round;stroke-linejoin:round;stroke-miterlimit:10;" x1="160.715" y1="238.162" x2="175.549" y2="238.162"/>
			
				<line style="fill:none;stroke:#263238;stroke-width:0.5;stroke-linecap:round;stroke-linejoin:round;stroke-miterlimit:10;" x1="160.715" y1="242.504" x2="175.549" y2="242.504"/>
			
				<line style="fill:none;stroke:#263238;stroke-width:0.5;stroke-linecap:round;stroke-linejoin:round;stroke-miterlimit:10;" x1="160.715" y1="246.845" x2="175.549" y2="246.845"/>
			
				<line style="fill:none;stroke:#263238;stroke-width:0.5;stroke-linecap:round;stroke-linejoin:round;stroke-miterlimit:10;" x1="160.715" y1="251.187" x2="175.549" y2="251.187"/>
		</g>
		<g>
			
				<line style="fill:none;stroke:#263238;stroke-width:0.5;stroke-linecap:round;stroke-linejoin:round;stroke-miterlimit:10;" x1="85.394" y1="235.586" x2="124.968" y2="235.586"/>
			
				<line style="fill:none;stroke:#263238;stroke-width:0.5;stroke-linecap:round;stroke-linejoin:round;stroke-miterlimit:10;" x1="85.394" y1="239.928" x2="124.968" y2="239.928"/>
			
				<line style="fill:none;stroke:#263238;stroke-width:0.5;stroke-linecap:round;stroke-linejoin:round;stroke-miterlimit:10;" x1="85.394" y1="244.269" x2="124.968" y2="244.269"/>
			
				<line style="fill:none;stroke:#263238;stroke-width:0.5;stroke-linecap:round;stroke-linejoin:round;stroke-miterlimit:10;" x1="85.394" y1="248.611" x2="124.968" y2="248.611"/>
		</g>
	</g>
</g>
<g id="Device_2">
	<g id="XMLID_238_">
		<g id="XMLID_237_">
			
				<rect id="XMLID_234_" x="210.938" y="409.825" style="fill:#FFFFFF;stroke:#263238;stroke-linecap:round;stroke-linejoin:round;stroke-miterlimit:10;" width="9.883" height="37.642"/>
			
				<rect id="XMLID_233_" x="209.393" y="409.825" style="fill:#263238;stroke:#263238;stroke-linecap:round;stroke-linejoin:round;stroke-miterlimit:10;" width="12.973" height="27.331"/>
		</g>
		
			<rect id="XMLID_231_" x="136.425" y="284.599" style="fill:#FFFFFF;stroke:#263238;stroke-linecap:round;stroke-linejoin:round;stroke-miterlimit:10;" width="163.578" height="127.951"/>
		
			<rect id="XMLID_232_" x="145.175" y="291.444" style="fill:#263238;stroke:#263238;stroke-linecap:round;stroke-linejoin:round;stroke-miterlimit:10;" width="146.077" height="114.262"/>
		<g>
			<g>
				<path style="fill:#C6FF00;" d="M159.074,299.305h-3.765c-0.513,0-0.928-0.415-0.928-0.929c0-0.513,0.415-0.928,0.928-0.928
					h3.765c0.513,0,0.928,0.415,0.928,0.928C160.002,298.889,159.587,299.305,159.074,299.305z M160.002,302.679
					c0-0.513-0.415-0.928-0.928-0.928h-3.765c-0.513,0-0.928,0.415-0.928,0.928c0,0.513,0.415,0.929,0.928,0.929h3.765
					C159.587,303.608,160.002,303.193,160.002,302.679z M160.002,306.982c0-0.513-0.415-0.928-0.928-0.928h-3.765
					c-0.513,0-0.928,0.415-0.928,0.928c0,0.513,0.415,0.929,0.928,0.929h3.765C159.587,307.911,160.002,307.496,160.002,306.982z
					 M160.002,311.285c0-0.513-0.415-0.929-0.928-0.929h-3.765c-0.513,0-0.928,0.415-0.928,0.929c0,0.513,0.415,0.929,0.928,0.929
					h3.765C159.587,312.214,160.002,311.799,160.002,311.285z M160.002,315.589c0-0.513-0.415-0.929-0.928-0.929h-3.765
					c-0.513,0-0.928,0.415-0.928,0.929c0,0.513,0.415,0.928,0.928,0.928h3.765C159.587,316.517,160.002,316.102,160.002,315.589z
					 M160.002,319.892c0-0.513-0.415-0.928-0.928-0.928h-3.765c-0.513,0-0.928,0.415-0.928,0.928c0,0.513,0.415,0.929,0.928,0.929
					h3.765C159.587,320.821,160.002,320.406,160.002,319.892z M160.002,324.196c0-0.513-0.415-0.929-0.928-0.929h-3.765
					c-0.513,0-0.928,0.415-0.928,0.929c0,0.513,0.415,0.929,0.928,0.929h3.765C159.587,325.124,160.002,324.709,160.002,324.196z
					 M160.002,328.499c0-0.513-0.415-0.929-0.928-0.929h-3.765c-0.513,0-0.928,0.415-0.928,0.929c0,0.513,0.415,0.928,0.928,0.928
					h3.765C159.587,329.427,160.002,329.012,160.002,328.499z M174.089,298.376c0-0.513-0.415-0.928-0.928-0.928h-9.884
					c-0.513,0-0.928,0.415-0.928,0.928c0,0.513,0.415,0.929,0.928,0.929h9.884C173.673,299.305,174.089,298.889,174.089,298.376z
					 M174.089,302.679c0-0.513-0.415-0.928-0.928-0.928h-9.884c-0.513,0-0.928,0.415-0.928,0.928c0,0.513,0.415,0.929,0.928,0.929
					h9.884C173.673,303.608,174.089,303.193,174.089,302.679z M174.089,306.982c0-0.513-0.415-0.928-0.928-0.928h-9.884
					c-0.513,0-0.928,0.415-0.928,0.928c0,0.513,0.415,0.929,0.928,0.929h9.884C173.673,307.911,174.089,307.496,174.089,306.982z
					 M174.089,311.285c0-0.513-0.415-0.929-0.928-0.929h-9.884c-0.513,0-0.928,0.415-0.928,0.929c0,0.513,0.415,0.929,0.928,0.929
					h9.884C173.673,312.214,174.089,311.799,174.089,311.285z M174.089,315.589c0-0.513-0.415-0.929-0.928-0.929h-9.884
					c-0.513,0-0.928,0.415-0.928,0.929c0,0.513,0.415,0.928,0.928,0.928h9.884C173.673,316.517,174.089,316.102,174.089,315.589z
					 M185.922,319.892c0-0.513-0.415-0.928-0.929-0.928h-9.884c-0.513,0-0.929,0.415-0.929,0.928c0,0.513,0.415,0.929,0.929,0.929
					h9.884C185.507,320.821,185.922,320.406,185.922,319.892z M185.922,324.196c0-0.513-0.415-0.929-0.929-0.929h-9.884
					c-0.513,0-0.929,0.415-0.929,0.929c0,0.513,0.415,0.929,0.929,0.929h9.884C185.507,325.124,185.922,324.709,185.922,324.196z
					 M185.922,328.499c0-0.513-0.415-0.929-0.929-0.929h-9.884c-0.513,0-0.929,0.415-0.929,0.929c0,0.513,0.415,0.928,0.929,0.928
					h9.884C185.507,329.427,185.922,329.012,185.922,328.499z M178.438,298.376c0-0.594-0.482-1.076-1.076-1.076
					c-0.594,0-1.076,0.481-1.076,1.076c0,0.594,0.482,1.076,1.076,1.076C177.957,299.452,178.438,298.97,178.438,298.376z
					 M181.665,298.376c0-0.594-0.481-1.076-1.076-1.076c-0.594,0-1.076,0.481-1.076,1.076c0,0.594,0.482,1.076,1.076,1.076
					C181.184,299.452,181.665,298.97,181.665,298.376z M184.893,298.376c0-0.594-0.482-1.076-1.076-1.076
					c-0.594,0-1.076,0.481-1.076,1.076c0,0.594,0.482,1.076,1.076,1.076C184.411,299.452,184.893,298.97,184.893,298.376z
					 M188.12,298.376c0-0.594-0.482-1.076-1.076-1.076c-0.594,0-1.076,0.481-1.076,1.076c0,0.594,0.482,1.076,1.076,1.076
					C187.639,299.452,188.12,298.97,188.12,298.376z M191.348,298.376c0-0.594-0.482-1.076-1.076-1.076
					c-0.594,0-1.076,0.481-1.076,1.076c0,0.594,0.482,1.076,1.076,1.076C190.866,299.452,191.348,298.97,191.348,298.376z
					 M194.575,298.376c0-0.594-0.482-1.076-1.076-1.076c-0.594,0-1.076,0.481-1.076,1.076c0,0.594,0.482,1.076,1.076,1.076
					C194.094,299.452,194.575,298.97,194.575,298.376z M178.438,306.983c0-0.594-0.482-1.076-1.076-1.076
					c-0.594,0-1.076,0.482-1.076,1.076c0,0.594,0.482,1.076,1.076,1.076C177.957,308.058,178.438,307.577,178.438,306.983z
					 M181.665,306.983c0-0.594-0.481-1.076-1.076-1.076c-0.594,0-1.076,0.482-1.076,1.076c0,0.594,0.482,1.076,1.076,1.076
					C181.184,308.058,181.665,307.577,181.665,306.983z M184.893,306.983c0-0.594-0.482-1.076-1.076-1.076
					c-0.594,0-1.076,0.482-1.076,1.076c0,0.594,0.482,1.076,1.076,1.076C184.411,308.058,184.893,307.577,184.893,306.983z
					 M188.12,306.983c0-0.594-0.482-1.076-1.076-1.076c-0.594,0-1.076,0.482-1.076,1.076c0,0.594,0.482,1.076,1.076,1.076
					C187.639,308.058,188.12,307.577,188.12,306.983z M191.348,306.983c0-0.594-0.482-1.076-1.076-1.076
					c-0.594,0-1.076,0.482-1.076,1.076c0,0.594,0.482,1.076,1.076,1.076C190.866,308.058,191.348,307.577,191.348,306.983z
					 M194.575,306.983c0-0.594-0.482-1.076-1.076-1.076c-0.594,0-1.076,0.482-1.076,1.076c0,0.594,0.482,1.076,1.076,1.076
					C194.094,308.058,194.575,307.577,194.575,306.983z M189.465,319.354c0-0.594-0.482-1.076-1.076-1.076
					c-0.594,0-1.076,0.482-1.076,1.076c0,0.594,0.482,1.076,1.076,1.076C188.983,320.43,189.465,319.948,189.465,319.354z
					 M192.693,319.354c0-0.594-0.482-1.076-1.076-1.076c-0.594,0-1.076,0.482-1.076,1.076c0,0.594,0.482,1.076,1.076,1.076
					C192.211,320.43,192.693,319.948,192.693,319.354z M195.92,319.354c0-0.594-0.482-1.076-1.076-1.076
					c-0.594,0-1.076,0.482-1.076,1.076c0,0.594,0.482,1.076,1.076,1.076C195.438,320.43,195.92,319.948,195.92,319.354z
					 M199.147,319.354c0-0.594-0.482-1.076-1.076-1.076c-0.594,0-1.076,0.482-1.076,1.076c0,0.594,0.482,1.076,1.076,1.076
					C198.666,320.43,199.147,319.948,199.147,319.354z M202.375,319.354c0-0.594-0.482-1.076-1.076-1.076
					c-0.594,0-1.076,0.482-1.076,1.076c0,0.594,0.482,1.076,1.076,1.076C201.893,320.43,202.375,319.948,202.375,319.354z
					 M205.602,319.354c0-0.594-0.482-1.076-1.076-1.076c-0.594,0-1.076,0.482-1.076,1.076c0,0.594,0.482,1.076,1.076,1.076
					C205.12,320.43,205.602,319.948,205.602,319.354z M189.465,328.23c0-0.594-0.482-1.076-1.076-1.076
					c-0.594,0-1.076,0.482-1.076,1.076c0,0.594,0.482,1.076,1.076,1.076C188.983,329.305,189.465,328.824,189.465,328.23z
					 M192.693,328.23c0-0.594-0.482-1.076-1.076-1.076c-0.594,0-1.076,0.482-1.076,1.076c0,0.594,0.482,1.076,1.076,1.076
					C192.211,329.305,192.693,328.824,192.693,328.23z M195.92,328.23c0-0.594-0.482-1.076-1.076-1.076
					c-0.594,0-1.076,0.482-1.076,1.076c0,0.594,0.482,1.076,1.076,1.076C195.438,329.305,195.92,328.824,195.92,328.23z
					 M199.147,328.23c0-0.594-0.482-1.076-1.076-1.076c-0.594,0-1.076,0.482-1.076,1.076c0,0.594,0.482,1.076,1.076,1.076
					C198.666,329.305,199.147,328.824,199.147,328.23z M202.375,328.23c0-0.594-0.482-1.076-1.076-1.076
					c-0.594,0-1.076,0.482-1.076,1.076c0,0.594,0.482,1.076,1.076,1.076C201.893,329.305,202.375,328.824,202.375,328.23z
					 M205.602,328.23c0-0.594-0.482-1.076-1.076-1.076c-0.594,0-1.076,0.482-1.076,1.076c0,0.594,0.482,1.076,1.076,1.076
					C205.12,329.305,205.602,328.824,205.602,328.23z"/>
				<path style="fill:#C6FF00;" d="M159.074,333.74h-3.765c-0.513,0-0.928-0.415-0.928-0.929c0-0.513,0.415-0.929,0.928-0.929h3.765
					c0.513,0,0.928,0.415,0.928,0.929C160.002,333.324,159.587,333.74,159.074,333.74z M160.002,337.114
					c0-0.513-0.415-0.929-0.928-0.929h-3.765c-0.513,0-0.928,0.415-0.928,0.929c0,0.513,0.415,0.929,0.928,0.929h3.765
					C159.587,338.043,160.002,337.627,160.002,337.114z M160.002,341.417c0-0.513-0.415-0.928-0.928-0.928h-3.765
					c-0.513,0-0.928,0.415-0.928,0.928c0,0.513,0.415,0.929,0.928,0.929h3.765C159.587,342.346,160.002,341.93,160.002,341.417z
					 M160.002,345.72c0-0.513-0.415-0.929-0.928-0.929h-3.765c-0.513,0-0.928,0.415-0.928,0.929c0,0.513,0.415,0.928,0.928,0.928
					h3.765C159.587,346.649,160.002,346.233,160.002,345.72z M160.002,350.023c0-0.513-0.415-0.929-0.928-0.929h-3.765
					c-0.513,0-0.928,0.415-0.928,0.929c0,0.513,0.415,0.928,0.928,0.928h3.765C159.587,350.952,160.002,350.536,160.002,350.023z
					 M160.002,354.327c0-0.513-0.415-0.928-0.928-0.928h-3.765c-0.513,0-0.928,0.415-0.928,0.928c0,0.513,0.415,0.929,0.928,0.929
					h3.765C159.587,355.256,160.002,354.84,160.002,354.327z M160.002,358.63c0-0.513-0.415-0.929-0.928-0.929h-3.765
					c-0.513,0-0.928,0.415-0.928,0.929c0,0.513,0.415,0.928,0.928,0.928h3.765C159.587,359.559,160.002,359.143,160.002,358.63z
					 M160.002,362.933c0-0.513-0.415-0.929-0.928-0.929h-3.765c-0.513,0-0.928,0.415-0.928,0.929c0,0.513,0.415,0.928,0.928,0.928
					h3.765C159.587,363.862,160.002,363.447,160.002,362.933z M174.089,332.811c0-0.513-0.415-0.929-0.928-0.929h-9.884
					c-0.513,0-0.928,0.415-0.928,0.929c0,0.513,0.415,0.929,0.928,0.929h9.884C173.673,333.74,174.089,333.324,174.089,332.811z
					 M174.089,337.114c0-0.513-0.415-0.929-0.928-0.929h-9.884c-0.513,0-0.928,0.415-0.928,0.929c0,0.513,0.415,0.929,0.928,0.929
					h9.884C173.673,338.043,174.089,337.627,174.089,337.114z M174.089,341.417c0-0.513-0.415-0.928-0.928-0.928h-9.884
					c-0.513,0-0.928,0.415-0.928,0.928c0,0.513,0.415,0.929,0.928,0.929h9.884C173.673,342.346,174.089,341.93,174.089,341.417z
					 M174.089,345.72c0-0.513-0.415-0.929-0.928-0.929h-9.884c-0.513,0-0.928,0.415-0.928,0.929c0,0.513,0.415,0.928,0.928,0.928
					h9.884C173.673,346.649,174.089,346.233,174.089,345.72z M174.089,350.023c0-0.513-0.415-0.929-0.928-0.929h-9.884
					c-0.513,0-0.928,0.415-0.928,0.929c0,0.513,0.415,0.928,0.928,0.928h9.884C173.673,350.952,174.089,350.536,174.089,350.023z
					 M185.922,354.327c0-0.513-0.415-0.928-0.929-0.928h-9.884c-0.513,0-0.929,0.415-0.929,0.928c0,0.513,0.415,0.929,0.929,0.929
					h9.884C185.507,355.256,185.922,354.84,185.922,354.327z M185.922,358.63c0-0.513-0.415-0.929-0.929-0.929h-9.884
					c-0.513,0-0.929,0.415-0.929,0.929c0,0.513,0.415,0.928,0.929,0.928h9.884C185.507,359.559,185.922,359.143,185.922,358.63z
					 M185.922,362.933c0-0.513-0.415-0.929-0.929-0.929h-9.884c-0.513,0-0.929,0.415-0.929,0.929c0,0.513,0.415,0.928,0.929,0.928
					h9.884C185.507,363.862,185.922,363.447,185.922,362.933z M178.438,332.811c0-0.594-0.482-1.076-1.076-1.076
					c-0.594,0-1.076,0.482-1.076,1.076c0,0.594,0.482,1.076,1.076,1.076C177.957,333.887,178.438,333.405,178.438,332.811z
					 M181.665,332.811c0-0.594-0.481-1.076-1.076-1.076c-0.594,0-1.076,0.482-1.076,1.076c0,0.594,0.482,1.076,1.076,1.076
					C181.184,333.887,181.665,333.405,181.665,332.811z M184.893,332.811c0-0.594-0.482-1.076-1.076-1.076
					c-0.594,0-1.076,0.482-1.076,1.076c0,0.594,0.482,1.076,1.076,1.076C184.411,333.887,184.893,333.405,184.893,332.811z
					 M188.12,332.811c0-0.594-0.482-1.076-1.076-1.076c-0.594,0-1.076,0.482-1.076,1.076c0,0.594,0.482,1.076,1.076,1.076
					C187.639,333.887,188.12,333.405,188.12,332.811z M191.348,332.811c0-0.594-0.482-1.076-1.076-1.076
					c-0.594,0-1.076,0.482-1.076,1.076c0,0.594,0.482,1.076,1.076,1.076C190.866,333.887,191.348,333.405,191.348,332.811z
					 M194.575,332.811c0-0.594-0.482-1.076-1.076-1.076c-0.594,0-1.076,0.482-1.076,1.076c0,0.594,0.482,1.076,1.076,1.076
					C194.094,333.887,194.575,333.405,194.575,332.811z M178.438,341.417c0-0.594-0.482-1.076-1.076-1.076
					c-0.594,0-1.076,0.482-1.076,1.076c0,0.594,0.482,1.076,1.076,1.076C177.957,342.493,178.438,342.011,178.438,341.417z
					 M181.665,341.417c0-0.594-0.481-1.076-1.076-1.076c-0.594,0-1.076,0.482-1.076,1.076c0,0.594,0.482,1.076,1.076,1.076
					C181.184,342.493,181.665,342.011,181.665,341.417z M184.893,341.417c0-0.594-0.482-1.076-1.076-1.076
					c-0.594,0-1.076,0.482-1.076,1.076c0,0.594,0.482,1.076,1.076,1.076C184.411,342.493,184.893,342.011,184.893,341.417z
					 M188.12,341.417c0-0.594-0.482-1.076-1.076-1.076c-0.594,0-1.076,0.482-1.076,1.076c0,0.594,0.482,1.076,1.076,1.076
					C187.639,342.493,188.12,342.011,188.12,341.417z M191.348,341.417c0-0.594-0.482-1.076-1.076-1.076
					c-0.594,0-1.076,0.482-1.076,1.076c0,0.594,0.482,1.076,1.076,1.076C190.866,342.493,191.348,342.011,191.348,341.417z
					 M194.575,341.417c0-0.594-0.482-1.076-1.076-1.076c-0.594,0-1.076,0.482-1.076,1.076c0,0.594,0.482,1.076,1.076,1.076
					C194.094,342.493,194.575,342.011,194.575,341.417z M189.465,353.789c0-0.594-0.482-1.076-1.076-1.076
					c-0.594,0-1.076,0.482-1.076,1.076c0,0.594,0.482,1.076,1.076,1.076C188.983,354.865,189.465,354.383,189.465,353.789z
					 M192.693,353.789c0-0.594-0.482-1.076-1.076-1.076c-0.594,0-1.076,0.482-1.076,1.076c0,0.594,0.482,1.076,1.076,1.076
					C192.211,354.865,192.693,354.383,192.693,353.789z M195.92,353.789c0-0.594-0.482-1.076-1.076-1.076
					c-0.594,0-1.076,0.482-1.076,1.076c0,0.594,0.482,1.076,1.076,1.076C195.438,354.865,195.92,354.383,195.92,353.789z
					 M199.147,353.789c0-0.594-0.482-1.076-1.076-1.076c-0.594,0-1.076,0.482-1.076,1.076c0,0.594,0.482,1.076,1.076,1.076
					C198.666,354.865,199.147,354.383,199.147,353.789z M202.375,353.789c0-0.594-0.482-1.076-1.076-1.076
					c-0.594,0-1.076,0.482-1.076,1.076c0,0.594,0.482,1.076,1.076,1.076C201.893,354.865,202.375,354.383,202.375,353.789z
					 M205.602,353.789c0-0.594-0.482-1.076-1.076-1.076c-0.594,0-1.076,0.482-1.076,1.076c0,0.594,0.482,1.076,1.076,1.076
					C205.12,354.865,205.602,354.383,205.602,353.789z M189.465,362.664c0-0.594-0.482-1.076-1.076-1.076
					c-0.594,0-1.076,0.482-1.076,1.076c0,0.594,0.482,1.076,1.076,1.076C188.983,363.74,189.465,363.258,189.465,362.664z
					 M192.693,362.664c0-0.594-0.482-1.076-1.076-1.076c-0.594,0-1.076,0.482-1.076,1.076c0,0.594,0.482,1.076,1.076,1.076
					C192.211,363.74,192.693,363.258,192.693,362.664z M195.92,362.664c0-0.594-0.482-1.076-1.076-1.076
					c-0.594,0-1.076,0.482-1.076,1.076c0,0.594,0.482,1.076,1.076,1.076C195.438,363.74,195.92,363.258,195.92,362.664z
					 M199.147,362.664c0-0.594-0.482-1.076-1.076-1.076c-0.594,0-1.076,0.482-1.076,1.076c0,0.594,0.482,1.076,1.076,1.076
					C198.666,363.74,199.147,363.258,199.147,362.664z M202.375,362.664c0-0.594-0.482-1.076-1.076-1.076
					c-0.594,0-1.076,0.482-1.076,1.076c0,0.594,0.482,1.076,1.076,1.076C201.893,363.74,202.375,363.258,202.375,362.664z
					 M205.602,362.664c0-0.594-0.482-1.076-1.076-1.076c-0.594,0-1.076,0.482-1.076,1.076c0,0.594,0.482,1.076,1.076,1.076
					C205.12,363.74,205.602,363.258,205.602,362.664z"/>
				<path style="fill:#C6FF00;" d="M159.074,369.005h-3.765c-0.513,0-0.928-0.415-0.928-0.929c0-0.513,0.415-0.929,0.928-0.929
					h3.765c0.513,0,0.928,0.415,0.928,0.929C160.002,368.59,159.587,369.005,159.074,369.005z M160.002,372.38
					c0-0.513-0.415-0.928-0.928-0.928h-3.765c-0.513,0-0.928,0.415-0.928,0.928c0,0.513,0.415,0.929,0.928,0.929h3.765
					C159.587,373.309,160.002,372.893,160.002,372.38z M160.002,376.683c0-0.513-0.415-0.929-0.928-0.929h-3.765
					c-0.513,0-0.928,0.415-0.928,0.929c0,0.513,0.415,0.928,0.928,0.928h3.765C159.587,377.612,160.002,377.196,160.002,376.683z
					 M160.002,380.986c0-0.513-0.415-0.929-0.928-0.929h-3.765c-0.513,0-0.928,0.415-0.928,0.929c0,0.513,0.415,0.928,0.928,0.928
					h3.765C159.587,381.915,160.002,381.499,160.002,380.986z M160.002,385.289c0-0.513-0.415-0.929-0.928-0.929h-3.765
					c-0.513,0-0.928,0.415-0.928,0.929c0,0.513,0.415,0.929,0.928,0.929h3.765C159.587,386.218,160.002,385.802,160.002,385.289z
					 M160.002,389.593c0-0.513-0.415-0.929-0.928-0.929h-3.765c-0.513,0-0.928,0.415-0.928,0.929c0,0.513,0.415,0.929,0.928,0.929
					h3.765C159.587,390.522,160.002,390.106,160.002,389.593z M160.002,393.896c0-0.513-0.415-0.929-0.928-0.929h-3.765
					c-0.513,0-0.928,0.415-0.928,0.929c0,0.513,0.415,0.928,0.928,0.928h3.765C159.587,394.825,160.002,394.409,160.002,393.896z
					 M160.002,398.199c0-0.513-0.415-0.929-0.928-0.929h-3.765c-0.513,0-0.928,0.415-0.928,0.929c0,0.513,0.415,0.929,0.928,0.929
					h3.765C159.587,399.128,160.002,398.712,160.002,398.199z M174.089,368.077c0-0.513-0.415-0.929-0.928-0.929h-9.884
					c-0.513,0-0.928,0.415-0.928,0.929c0,0.513,0.415,0.929,0.928,0.929h9.884C173.673,369.005,174.089,368.59,174.089,368.077z
					 M174.089,372.38c0-0.513-0.415-0.928-0.928-0.928h-9.884c-0.513,0-0.928,0.415-0.928,0.928c0,0.513,0.415,0.929,0.928,0.929
					h9.884C173.673,373.309,174.089,372.893,174.089,372.38z M174.089,376.683c0-0.513-0.415-0.929-0.928-0.929h-9.884
					c-0.513,0-0.928,0.415-0.928,0.929c0,0.513,0.415,0.928,0.928,0.928h9.884C173.673,377.612,174.089,377.196,174.089,376.683z
					 M174.089,380.986c0-0.513-0.415-0.929-0.928-0.929h-9.884c-0.513,0-0.928,0.415-0.928,0.929c0,0.513,0.415,0.928,0.928,0.928
					h9.884C173.673,381.915,174.089,381.499,174.089,380.986z M174.089,385.289c0-0.513-0.415-0.929-0.928-0.929h-9.884
					c-0.513,0-0.928,0.415-0.928,0.929c0,0.513,0.415,0.929,0.928,0.929h9.884C173.673,386.218,174.089,385.802,174.089,385.289z
					 M185.922,389.593c0-0.513-0.415-0.929-0.929-0.929h-9.884c-0.513,0-0.929,0.415-0.929,0.929c0,0.513,0.415,0.929,0.929,0.929
					h9.884C185.507,390.522,185.922,390.106,185.922,389.593z M185.922,393.896c0-0.513-0.415-0.929-0.929-0.929h-9.884
					c-0.513,0-0.929,0.415-0.929,0.929c0,0.513,0.415,0.928,0.929,0.928h9.884C185.507,394.825,185.922,394.409,185.922,393.896z
					 M185.922,398.199c0-0.513-0.415-0.929-0.929-0.929h-9.884c-0.513,0-0.929,0.415-0.929,0.929c0,0.513,0.415,0.929,0.929,0.929
					h9.884C185.507,399.128,185.922,398.712,185.922,398.199z M178.438,368.077c0-0.594-0.482-1.076-1.076-1.076
					c-0.594,0-1.076,0.482-1.076,1.076c0,0.594,0.482,1.076,1.076,1.076C177.957,369.152,178.438,368.671,178.438,368.077z
					 M181.665,368.077c0-0.594-0.481-1.076-1.076-1.076c-0.594,0-1.076,0.482-1.076,1.076c0,0.594,0.482,1.076,1.076,1.076
					C181.184,369.152,181.665,368.671,181.665,368.077z M184.893,368.077c0-0.594-0.482-1.076-1.076-1.076
					c-0.594,0-1.076,0.482-1.076,1.076c0,0.594,0.482,1.076,1.076,1.076C184.411,369.152,184.893,368.671,184.893,368.077z
					 M188.12,368.077c0-0.594-0.482-1.076-1.076-1.076c-0.594,0-1.076,0.482-1.076,1.076c0,0.594,0.482,1.076,1.076,1.076
					C187.639,369.152,188.12,368.671,188.12,368.077z M191.348,368.077c0-0.594-0.482-1.076-1.076-1.076
					c-0.594,0-1.076,0.482-1.076,1.076c0,0.594,0.482,1.076,1.076,1.076C190.866,369.152,191.348,368.671,191.348,368.077z
					 M194.575,368.077c0-0.594-0.482-1.076-1.076-1.076c-0.594,0-1.076,0.482-1.076,1.076c0,0.594,0.482,1.076,1.076,1.076
					C194.094,369.152,194.575,368.671,194.575,368.077z M178.438,376.683c0-0.594-0.482-1.076-1.076-1.076
					c-0.594,0-1.076,0.482-1.076,1.076c0,0.594,0.482,1.076,1.076,1.076C177.957,377.759,178.438,377.277,178.438,376.683z
					 M181.665,376.683c0-0.594-0.481-1.076-1.076-1.076c-0.594,0-1.076,0.482-1.076,1.076c0,0.594,0.482,1.076,1.076,1.076
					C181.184,377.759,181.665,377.277,181.665,376.683z M184.893,376.683c0-0.594-0.482-1.076-1.076-1.076
					c-0.594,0-1.076,0.482-1.076,1.076c0,0.594,0.482,1.076,1.076,1.076C184.411,377.759,184.893,377.277,184.893,376.683z
					 M188.12,376.683c0-0.594-0.482-1.076-1.076-1.076c-0.594,0-1.076,0.482-1.076,1.076c0,0.594,0.482,1.076,1.076,1.076
					C187.639,377.759,188.12,377.277,188.12,376.683z M191.348,376.683c0-0.594-0.482-1.076-1.076-1.076
					c-0.594,0-1.076,0.482-1.076,1.076c0,0.594,0.482,1.076,1.076,1.076C190.866,377.759,191.348,377.277,191.348,376.683z
					 M194.575,376.683c0-0.594-0.482-1.076-1.076-1.076c-0.594,0-1.076,0.482-1.076,1.076c0,0.594,0.482,1.076,1.076,1.076
					C194.094,377.759,194.575,377.277,194.575,376.683z M189.465,389.055c0-0.594-0.482-1.076-1.076-1.076
					c-0.594,0-1.076,0.482-1.076,1.076c0,0.594,0.482,1.076,1.076,1.076C188.983,390.131,189.465,389.649,189.465,389.055z
					 M192.693,389.055c0-0.594-0.482-1.076-1.076-1.076c-0.594,0-1.076,0.482-1.076,1.076c0,0.594,0.482,1.076,1.076,1.076
					C192.211,390.131,192.693,389.649,192.693,389.055z M195.92,389.055c0-0.594-0.482-1.076-1.076-1.076
					c-0.594,0-1.076,0.482-1.076,1.076c0,0.594,0.482,1.076,1.076,1.076C195.438,390.131,195.92,389.649,195.92,389.055z
					 M199.147,389.055c0-0.594-0.482-1.076-1.076-1.076c-0.594,0-1.076,0.482-1.076,1.076c0,0.594,0.482,1.076,1.076,1.076
					C198.666,390.131,199.147,389.649,199.147,389.055z M202.375,389.055c0-0.594-0.482-1.076-1.076-1.076
					c-0.594,0-1.076,0.482-1.076,1.076c0,0.594,0.482,1.076,1.076,1.076C201.893,390.131,202.375,389.649,202.375,389.055z
					 M205.602,389.055c0-0.594-0.482-1.076-1.076-1.076c-0.594,0-1.076,0.482-1.076,1.076c0,0.594,0.482,1.076,1.076,1.076
					C205.12,390.131,205.602,389.649,205.602,389.055z M189.465,397.93c0-0.594-0.482-1.076-1.076-1.076
					c-0.594,0-1.076,0.482-1.076,1.076c0,0.594,0.482,1.076,1.076,1.076C188.983,399.006,189.465,398.524,189.465,397.93z
					 M192.693,397.93c0-0.594-0.482-1.076-1.076-1.076c-0.594,0-1.076,0.482-1.076,1.076c0,0.594,0.482,1.076,1.076,1.076
					C192.211,399.006,192.693,398.524,192.693,397.93z M195.92,397.93c0-0.594-0.482-1.076-1.076-1.076
					c-0.594,0-1.076,0.482-1.076,1.076c0,0.594,0.482,1.076,1.076,1.076C195.438,399.006,195.92,398.524,195.92,397.93z
					 M199.147,397.93c0-0.594-0.482-1.076-1.076-1.076c-0.594,0-1.076,0.482-1.076,1.076c0,0.594,0.482,1.076,1.076,1.076
					C198.666,399.006,199.147,398.524,199.147,397.93z M202.375,397.93c0-0.594-0.482-1.076-1.076-1.076
					c-0.594,0-1.076,0.482-1.076,1.076c0,0.594,0.482,1.076,1.076,1.076C201.893,399.006,202.375,398.524,202.375,397.93z
					 M205.602,397.93c0-0.594-0.482-1.076-1.076-1.076c-0.594,0-1.076,0.482-1.076,1.076c0,0.594,0.482,1.076,1.076,1.076
					C205.12,399.006,205.602,398.524,205.602,397.93z"/>
				<path style="fill:#C6FF00;" d="M216.882,299.305h-3.765c-0.513,0-0.928-0.415-0.928-0.929c0-0.513,0.415-0.928,0.928-0.928
					h3.765c0.513,0,0.929,0.415,0.929,0.928C217.811,298.889,217.396,299.305,216.882,299.305z M217.811,302.679
					c0-0.513-0.415-0.928-0.929-0.928h-3.765c-0.513,0-0.928,0.415-0.928,0.928c0,0.513,0.415,0.929,0.928,0.929h3.765
					C217.396,303.608,217.811,303.193,217.811,302.679z M217.811,306.982c0-0.513-0.415-0.928-0.929-0.928h-3.765
					c-0.513,0-0.928,0.415-0.928,0.928c0,0.513,0.415,0.929,0.928,0.929h3.765C217.396,307.911,217.811,307.496,217.811,306.982z
					 M217.811,311.285c0-0.513-0.415-0.929-0.929-0.929h-3.765c-0.513,0-0.928,0.415-0.928,0.929c0,0.513,0.415,0.929,0.928,0.929
					h3.765C217.396,312.214,217.811,311.799,217.811,311.285z M217.811,315.589c0-0.513-0.415-0.929-0.929-0.929h-3.765
					c-0.513,0-0.928,0.415-0.928,0.929c0,0.513,0.415,0.928,0.928,0.928h3.765C217.396,316.517,217.811,316.102,217.811,315.589z
					 M217.811,319.892c0-0.513-0.415-0.928-0.929-0.928h-3.765c-0.513,0-0.928,0.415-0.928,0.928c0,0.513,0.415,0.929,0.928,0.929
					h3.765C217.396,320.821,217.811,320.406,217.811,319.892z M217.811,324.196c0-0.513-0.415-0.929-0.929-0.929h-3.765
					c-0.513,0-0.928,0.415-0.928,0.929c0,0.513,0.415,0.929,0.928,0.929h3.765C217.396,325.124,217.811,324.709,217.811,324.196z
					 M217.811,328.499c0-0.513-0.415-0.929-0.929-0.929h-3.765c-0.513,0-0.928,0.415-0.928,0.929c0,0.513,0.415,0.928,0.928,0.928
					h3.765C217.396,329.427,217.811,329.012,217.811,328.499z M231.897,298.376c0-0.513-0.415-0.928-0.929-0.928h-9.884
					c-0.513,0-0.929,0.415-0.929,0.928c0,0.513,0.415,0.929,0.929,0.929h9.884C231.482,299.305,231.897,298.889,231.897,298.376z
					 M231.897,302.679c0-0.513-0.415-0.928-0.929-0.928h-9.884c-0.513,0-0.929,0.415-0.929,0.928c0,0.513,0.415,0.929,0.929,0.929
					h9.884C231.482,303.608,231.897,303.193,231.897,302.679z M231.897,306.982c0-0.513-0.415-0.928-0.929-0.928h-9.884
					c-0.513,0-0.929,0.415-0.929,0.928c0,0.513,0.415,0.929,0.929,0.929h9.884C231.482,307.911,231.897,307.496,231.897,306.982z
					 M231.897,311.285c0-0.513-0.415-0.929-0.929-0.929h-9.884c-0.513,0-0.929,0.415-0.929,0.929c0,0.513,0.415,0.929,0.929,0.929
					h9.884C231.482,312.214,231.897,311.799,231.897,311.285z M231.897,315.589c0-0.513-0.415-0.929-0.929-0.929h-9.884
					c-0.513,0-0.929,0.415-0.929,0.929c0,0.513,0.415,0.928,0.929,0.928h9.884C231.482,316.517,231.897,316.102,231.897,315.589z
					 M243.731,319.892c0-0.513-0.415-0.928-0.929-0.928h-9.884c-0.513,0-0.929,0.415-0.929,0.928c0,0.513,0.415,0.929,0.929,0.929
					h9.884C243.316,320.821,243.731,320.406,243.731,319.892z M243.731,324.196c0-0.513-0.415-0.929-0.929-0.929h-9.884
					c-0.513,0-0.929,0.415-0.929,0.929c0,0.513,0.415,0.929,0.929,0.929h9.884C243.316,325.124,243.731,324.709,243.731,324.196z
					 M243.731,328.499c0-0.513-0.415-0.929-0.929-0.929h-9.884c-0.513,0-0.929,0.415-0.929,0.929c0,0.513,0.415,0.928,0.929,0.928
					h9.884C243.316,329.427,243.731,329.012,243.731,328.499z M236.247,298.376c0-0.594-0.482-1.076-1.076-1.076
					c-0.594,0-1.076,0.481-1.076,1.076c0,0.594,0.481,1.076,1.076,1.076C235.765,299.452,236.247,298.97,236.247,298.376z
					 M239.474,298.376c0-0.594-0.482-1.076-1.076-1.076c-0.594,0-1.076,0.481-1.076,1.076c0,0.594,0.482,1.076,1.076,1.076
					C238.993,299.452,239.474,298.97,239.474,298.376z M242.702,298.376c0-0.594-0.482-1.076-1.076-1.076
					c-0.594,0-1.076,0.481-1.076,1.076c0,0.594,0.482,1.076,1.076,1.076C242.22,299.452,242.702,298.97,242.702,298.376z
					 M245.929,298.376c0-0.594-0.482-1.076-1.076-1.076c-0.594,0-1.076,0.481-1.076,1.076c0,0.594,0.482,1.076,1.076,1.076
					C245.448,299.452,245.929,298.97,245.929,298.376z M249.157,298.376c0-0.594-0.482-1.076-1.076-1.076
					c-0.594,0-1.076,0.481-1.076,1.076c0,0.594,0.482,1.076,1.076,1.076C248.675,299.452,249.157,298.97,249.157,298.376z
					 M252.384,298.376c0-0.594-0.482-1.076-1.076-1.076c-0.594,0-1.076,0.481-1.076,1.076c0,0.594,0.482,1.076,1.076,1.076
					C251.902,299.452,252.384,298.97,252.384,298.376z M236.247,306.983c0-0.594-0.482-1.076-1.076-1.076
					c-0.594,0-1.076,0.482-1.076,1.076c0,0.594,0.481,1.076,1.076,1.076C235.765,308.058,236.247,307.577,236.247,306.983z
					 M239.474,306.983c0-0.594-0.482-1.076-1.076-1.076c-0.594,0-1.076,0.482-1.076,1.076c0,0.594,0.482,1.076,1.076,1.076
					C238.993,308.058,239.474,307.577,239.474,306.983z M242.702,306.983c0-0.594-0.482-1.076-1.076-1.076
					c-0.594,0-1.076,0.482-1.076,1.076c0,0.594,0.482,1.076,1.076,1.076C242.22,308.058,242.702,307.577,242.702,306.983z
					 M245.929,306.983c0-0.594-0.482-1.076-1.076-1.076c-0.594,0-1.076,0.482-1.076,1.076c0,0.594,0.482,1.076,1.076,1.076
					C245.448,308.058,245.929,307.577,245.929,306.983z M249.157,306.983c0-0.594-0.482-1.076-1.076-1.076
					c-0.594,0-1.076,0.482-1.076,1.076c0,0.594,0.482,1.076,1.076,1.076C248.675,308.058,249.157,307.577,249.157,306.983z
					 M252.384,306.983c0-0.594-0.482-1.076-1.076-1.076c-0.594,0-1.076,0.482-1.076,1.076c0,0.594,0.482,1.076,1.076,1.076
					C251.902,308.058,252.384,307.577,252.384,306.983z M247.274,319.354c0-0.594-0.482-1.076-1.076-1.076
					c-0.594,0-1.076,0.482-1.076,1.076c0,0.594,0.482,1.076,1.076,1.076C246.792,320.43,247.274,319.948,247.274,319.354z
					 M250.502,319.354c0-0.594-0.482-1.076-1.076-1.076c-0.594,0-1.076,0.482-1.076,1.076c0,0.594,0.481,1.076,1.076,1.076
					C250.02,320.43,250.502,319.948,250.502,319.354z M253.729,319.354c0-0.594-0.482-1.076-1.076-1.076
					c-0.594,0-1.076,0.482-1.076,1.076c0,0.594,0.482,1.076,1.076,1.076C253.247,320.43,253.729,319.948,253.729,319.354z
					 M256.956,319.354c0-0.594-0.482-1.076-1.076-1.076c-0.594,0-1.076,0.482-1.076,1.076c0,0.594,0.482,1.076,1.076,1.076
					C256.475,320.43,256.956,319.948,256.956,319.354z M260.184,319.354c0-0.594-0.482-1.076-1.076-1.076
					c-0.594,0-1.076,0.482-1.076,1.076c0,0.594,0.481,1.076,1.076,1.076C259.702,320.43,260.184,319.948,260.184,319.354z
					 M263.411,319.354c0-0.594-0.482-1.076-1.076-1.076c-0.594,0-1.076,0.482-1.076,1.076c0,0.594,0.482,1.076,1.076,1.076
					C262.929,320.43,263.411,319.948,263.411,319.354z M247.274,328.23c0-0.594-0.482-1.076-1.076-1.076
					c-0.594,0-1.076,0.482-1.076,1.076c0,0.594,0.482,1.076,1.076,1.076C246.792,329.305,247.274,328.824,247.274,328.23z
					 M250.502,328.23c0-0.594-0.482-1.076-1.076-1.076c-0.594,0-1.076,0.482-1.076,1.076c0,0.594,0.481,1.076,1.076,1.076
					C250.02,329.305,250.502,328.824,250.502,328.23z M253.729,328.23c0-0.594-0.482-1.076-1.076-1.076
					c-0.594,0-1.076,0.482-1.076,1.076c0,0.594,0.482,1.076,1.076,1.076C253.247,329.305,253.729,328.824,253.729,328.23z
					 M256.956,328.23c0-0.594-0.482-1.076-1.076-1.076c-0.594,0-1.076,0.482-1.076,1.076c0,0.594,0.482,1.076,1.076,1.076
					C256.475,329.305,256.956,328.824,256.956,328.23z M260.184,328.23c0-0.594-0.482-1.076-1.076-1.076
					c-0.594,0-1.076,0.482-1.076,1.076c0,0.594,0.481,1.076,1.076,1.076C259.702,329.305,260.184,328.824,260.184,328.23z
					 M263.411,328.23c0-0.594-0.482-1.076-1.076-1.076c-0.594,0-1.076,0.482-1.076,1.076c0,0.594,0.482,1.076,1.076,1.076
					C262.929,329.305,263.411,328.824,263.411,328.23z"/>
				<path style="fill:#C6FF00;" d="M216.882,334.571h-3.765c-0.513,0-0.928-0.415-0.928-0.929c0-0.513,0.415-0.929,0.928-0.929
					h3.765c0.513,0,0.929,0.415,0.929,0.929C217.811,334.155,217.396,334.571,216.882,334.571z M217.811,337.945
					c0-0.513-0.415-0.928-0.929-0.928h-3.765c-0.513,0-0.928,0.415-0.928,0.928c0,0.513,0.415,0.929,0.928,0.929h3.765
					C217.396,338.874,217.811,338.459,217.811,337.945z M217.811,342.248c0-0.513-0.415-0.929-0.929-0.929h-3.765
					c-0.513,0-0.928,0.415-0.928,0.929c0,0.513,0.415,0.929,0.928,0.929h3.765C217.396,343.177,217.811,342.762,217.811,342.248z
					 M217.811,346.552c0-0.513-0.415-0.929-0.929-0.929h-3.765c-0.513,0-0.928,0.415-0.928,0.929c0,0.513,0.415,0.928,0.928,0.928
					h3.765C217.396,347.48,217.811,347.065,217.811,346.552z M217.811,350.854c0-0.513-0.415-0.929-0.929-0.929h-3.765
					c-0.513,0-0.928,0.415-0.928,0.929c0,0.513,0.415,0.929,0.928,0.929h3.765C217.396,351.783,217.811,351.368,217.811,350.854z
					 M217.811,355.159c0-0.513-0.415-0.929-0.929-0.929h-3.765c-0.513,0-0.928,0.415-0.928,0.929c0,0.513,0.415,0.929,0.928,0.929
					h3.765C217.396,356.087,217.811,355.672,217.811,355.159z M217.811,359.462c0-0.513-0.415-0.929-0.929-0.929h-3.765
					c-0.513,0-0.928,0.415-0.928,0.929c0,0.513,0.415,0.928,0.928,0.928h3.765C217.396,360.39,217.811,359.975,217.811,359.462z
					 M217.811,363.765c0-0.513-0.415-0.929-0.929-0.929h-3.765c-0.513,0-0.928,0.415-0.928,0.929c0,0.513,0.415,0.929,0.928,0.929
					h3.765C217.396,364.693,217.811,364.278,217.811,363.765z M231.897,333.642c0-0.513-0.415-0.929-0.929-0.929h-9.884
					c-0.513,0-0.929,0.415-0.929,0.929c0,0.513,0.415,0.929,0.929,0.929h9.884C231.482,334.571,231.897,334.155,231.897,333.642z
					 M231.897,337.945c0-0.513-0.415-0.928-0.929-0.928h-9.884c-0.513,0-0.929,0.415-0.929,0.928c0,0.513,0.415,0.929,0.929,0.929
					h9.884C231.482,338.874,231.897,338.459,231.897,337.945z M231.897,342.248c0-0.513-0.415-0.929-0.929-0.929h-9.884
					c-0.513,0-0.929,0.415-0.929,0.929c0,0.513,0.415,0.929,0.929,0.929h9.884C231.482,343.177,231.897,342.762,231.897,342.248z
					 M231.897,346.552c0-0.513-0.415-0.929-0.929-0.929h-9.884c-0.513,0-0.929,0.415-0.929,0.929c0,0.513,0.415,0.928,0.929,0.928
					h9.884C231.482,347.48,231.897,347.065,231.897,346.552z M231.897,350.854c0-0.513-0.415-0.929-0.929-0.929h-9.884
					c-0.513,0-0.929,0.415-0.929,0.929c0,0.513,0.415,0.929,0.929,0.929h9.884C231.482,351.783,231.897,351.368,231.897,350.854z
					 M243.731,355.159c0-0.513-0.415-0.929-0.929-0.929h-9.884c-0.513,0-0.929,0.415-0.929,0.929c0,0.513,0.415,0.929,0.929,0.929
					h9.884C243.316,356.087,243.731,355.672,243.731,355.159z M243.731,359.462c0-0.513-0.415-0.929-0.929-0.929h-9.884
					c-0.513,0-0.929,0.415-0.929,0.929c0,0.513,0.415,0.928,0.929,0.928h9.884C243.316,360.39,243.731,359.975,243.731,359.462z
					 M243.731,363.765c0-0.513-0.415-0.929-0.929-0.929h-9.884c-0.513,0-0.929,0.415-0.929,0.929c0,0.513,0.415,0.929,0.929,0.929
					h9.884C243.316,364.693,243.731,364.278,243.731,363.765z M236.247,333.642c0-0.594-0.482-1.076-1.076-1.076
					c-0.594,0-1.076,0.482-1.076,1.076c0,0.594,0.481,1.076,1.076,1.076C235.765,334.718,236.247,334.236,236.247,333.642z
					 M239.474,333.642c0-0.594-0.482-1.076-1.076-1.076c-0.594,0-1.076,0.482-1.076,1.076c0,0.594,0.482,1.076,1.076,1.076
					C238.993,334.718,239.474,334.236,239.474,333.642z M242.702,333.642c0-0.594-0.482-1.076-1.076-1.076
					c-0.594,0-1.076,0.482-1.076,1.076c0,0.594,0.482,1.076,1.076,1.076C242.22,334.718,242.702,334.236,242.702,333.642z
					 M245.929,333.642c0-0.594-0.482-1.076-1.076-1.076c-0.594,0-1.076,0.482-1.076,1.076c0,0.594,0.482,1.076,1.076,1.076
					C245.448,334.718,245.929,334.236,245.929,333.642z M249.157,333.642c0-0.594-0.482-1.076-1.076-1.076
					c-0.594,0-1.076,0.482-1.076,1.076c0,0.594,0.482,1.076,1.076,1.076C248.675,334.718,249.157,334.236,249.157,333.642z
					 M252.384,333.642c0-0.594-0.482-1.076-1.076-1.076c-0.594,0-1.076,0.482-1.076,1.076c0,0.594,0.482,1.076,1.076,1.076
					C251.902,334.718,252.384,334.236,252.384,333.642z M236.247,342.248c0-0.594-0.482-1.076-1.076-1.076
					c-0.594,0-1.076,0.482-1.076,1.076c0,0.594,0.481,1.076,1.076,1.076C235.765,343.324,236.247,342.843,236.247,342.248z
					 M239.474,342.248c0-0.594-0.482-1.076-1.076-1.076c-0.594,0-1.076,0.482-1.076,1.076c0,0.594,0.482,1.076,1.076,1.076
					C238.993,343.324,239.474,342.843,239.474,342.248z M242.702,342.248c0-0.594-0.482-1.076-1.076-1.076
					c-0.594,0-1.076,0.482-1.076,1.076c0,0.594,0.482,1.076,1.076,1.076C242.22,343.324,242.702,342.843,242.702,342.248z
					 M245.929,342.248c0-0.594-0.482-1.076-1.076-1.076c-0.594,0-1.076,0.482-1.076,1.076c0,0.594,0.482,1.076,1.076,1.076
					C245.448,343.324,245.929,342.843,245.929,342.248z M249.157,342.248c0-0.594-0.482-1.076-1.076-1.076
					c-0.594,0-1.076,0.482-1.076,1.076c0,0.594,0.482,1.076,1.076,1.076C248.675,343.324,249.157,342.843,249.157,342.248z
					 M252.384,342.248c0-0.594-0.482-1.076-1.076-1.076c-0.594,0-1.076,0.482-1.076,1.076c0,0.594,0.482,1.076,1.076,1.076
					C251.902,343.324,252.384,342.843,252.384,342.248z M247.274,354.62c0-0.594-0.482-1.076-1.076-1.076
					c-0.594,0-1.076,0.482-1.076,1.076c0,0.594,0.482,1.076,1.076,1.076C246.792,355.696,247.274,355.214,247.274,354.62z
					 M250.502,354.62c0-0.594-0.482-1.076-1.076-1.076c-0.594,0-1.076,0.482-1.076,1.076c0,0.594,0.481,1.076,1.076,1.076
					C250.02,355.696,250.502,355.214,250.502,354.62z M253.729,354.62c0-0.594-0.482-1.076-1.076-1.076
					c-0.594,0-1.076,0.482-1.076,1.076c0,0.594,0.482,1.076,1.076,1.076C253.247,355.696,253.729,355.214,253.729,354.62z
					 M256.956,354.62c0-0.594-0.482-1.076-1.076-1.076c-0.594,0-1.076,0.482-1.076,1.076c0,0.594,0.482,1.076,1.076,1.076
					C256.475,355.696,256.956,355.214,256.956,354.62z M260.184,354.62c0-0.594-0.482-1.076-1.076-1.076
					c-0.594,0-1.076,0.482-1.076,1.076c0,0.594,0.481,1.076,1.076,1.076C259.702,355.696,260.184,355.214,260.184,354.62z
					 M263.411,354.62c0-0.594-0.482-1.076-1.076-1.076c-0.594,0-1.076,0.482-1.076,1.076c0,0.594,0.482,1.076,1.076,1.076
					C262.929,355.696,263.411,355.214,263.411,354.62z M247.274,363.496c0-0.594-0.482-1.076-1.076-1.076
					c-0.594,0-1.076,0.482-1.076,1.076c0,0.594,0.482,1.076,1.076,1.076C246.792,364.571,247.274,364.09,247.274,363.496z
					 M250.502,363.496c0-0.594-0.482-1.076-1.076-1.076c-0.594,0-1.076,0.482-1.076,1.076c0,0.594,0.481,1.076,1.076,1.076
					C250.02,364.571,250.502,364.09,250.502,363.496z M253.729,363.496c0-0.594-0.482-1.076-1.076-1.076
					c-0.594,0-1.076,0.482-1.076,1.076c0,0.594,0.482,1.076,1.076,1.076C253.247,364.571,253.729,364.09,253.729,363.496z
					 M256.956,363.496c0-0.594-0.482-1.076-1.076-1.076c-0.594,0-1.076,0.482-1.076,1.076c0,0.594,0.482,1.076,1.076,1.076
					C256.475,364.571,256.956,364.09,256.956,363.496z M260.184,363.496c0-0.594-0.482-1.076-1.076-1.076
					c-0.594,0-1.076,0.482-1.076,1.076c0,0.594,0.481,1.076,1.076,1.076C259.702,364.571,260.184,364.09,260.184,363.496z
					 M263.411,363.496c0-0.594-0.482-1.076-1.076-1.076c-0.594,0-1.076,0.482-1.076,1.076c0,0.594,0.482,1.076,1.076,1.076
					C262.929,364.571,263.411,364.09,263.411,363.496z"/>
			</g>
		</g>
	</g>
</g>
<g id="Character">
	<g>
		<g>
			<defs>
				<path id="XMLID_3_" d="M330.913,278.323c0,0-13.865,9.965-21.23,24.263c-7.366,14.298-14.298,46.361-23.397,61.525
					c-9.099,15.165-17.331,26.43-25.997,32.929c-8.665,6.499-21.664,10.832-29.029,12.132c-7.366,1.3-27.296,3.466-27.296,3.466
					l0.867,16.465c0,0,16.898,0.433,48.96-2.6c32.062-3.033,71.057-26.43,71.057-26.43l-1.3,48.094h111.785
					c0,0,6.932-68.458,3.466-103.553c-3.466-35.095-23.397-60.659-40.295-70.191c-16.898-9.532-34.662-7.366-45.494-6.499
					C342.178,268.791,330.913,278.323,330.913,278.323z"/>
			</defs>
			<use xlink:href="#XMLID_3_"  style="overflow:visible;fill:#616161;"/>
			<clipPath id="XMLID_00000162340025392362982130000010122665049590713532_">
				<use xlink:href="#XMLID_3_"  style="overflow:visible;"/>
			</clipPath>
			<path style="opacity:0.3;clip-path:url(#XMLID_00000162340025392362982130000010122665049590713532_);" d="M398.504,274.424
				c-12.026-6.784-24.489-7.641-34.582-7.26l-22.809,36.719c0,0,26.387-13.882,33.887-15.882s23,4.5,27.5,21s6,80,7.5,98.5
				s-6.5,33.5-9,36c-1.165,1.165-3.305,2.872-3.996,4.667h38.328c0,0,6.932-68.458,3.466-103.553
				C435.332,309.519,415.402,283.956,398.504,274.424z"/>
			<g style="clip-path:url(#XMLID_00000162340025392362982130000010122665049590713532_);">
				<path style="fill:#C6FF00;" d="M345.903,404.271c-20.952-0.639-15.951-28.129-21.465-43.581
					c-5.514-15.452-5.64-41.725,15.741-42.202c21.381-0.477,25.044,28.963,28.339,44.359
					C371.813,378.244,366.855,404.91,345.903,404.271z M326.259,360.548c5.254,13.582,0.897,40.766,19.938,41.218
					c19.041,0.452,23.866-24.518,20.822-38.97c-3.044-14.452-7.407-42.068-26.793-41.716
					C320.839,321.431,321.005,346.965,326.259,360.548z M352.544,328.929c-2.285,7.008-4.189,14.105-6.102,21.216
					c0.945,1.827,2.006,3.487,2.889,5.371c0.882,1.884,1.385,4.016,2.028,6.01c4.889,0.323,9.754,0.782,14.651,0.978
					C362.932,351.607,359.964,337.638,352.544,328.929z M339.57,349.912c-2.951-7.313-6.41-14.36-9.919-21.416
					c-7.333,9.815-6.243,21.251-1.478,31.952c3.551-0.177,7.064-0.254,10.584,0.312C338.078,357.053,337.611,353.303,339.57,349.912
					z M347.772,373.545c-2.26,1.968-4.004,2.187-5.597-0.548c-1.543,7.243-3.527,14.414-5.909,21.425
					c5.854,7.036,14.844,7.176,21.157,0.542C353.853,387.767,350.033,381.323,347.772,373.545z M347.961,361.346
					c-0.382-2.602-1.428-7.814-4.935-8.009c-3.506-0.195-3.177,5.558-2.662,7.866c0.515,2.308,0.896,8.452,4.148,8.553
					C347.764,369.857,348.343,363.948,347.961,361.346z"/>
			</g>
			<path style="opacity:0.3;clip-path:url(#XMLID_00000162340025392362982130000010122665049590713532_);" d="M319.5,357.5
				c0,0-6-23-5.5-12.5s1,35-10.5,48s-20.5,9.5-29.5,15c-5.18,3.165-19.404,12.023-30.282,19.386
				c3.174-0.256,6.525-0.547,10.072-0.883c32.062-3.033,71.057-26.43,71.057-26.43l-0.157,5.819
				C325.2,400.722,326.148,383.26,319.5,357.5z"/>
			
				<path style="clip-path:url(#XMLID_00000162340025392362982130000010122665049590713532_);fill:none;stroke:#263238;stroke-linecap:round;stroke-linejoin:round;stroke-miterlimit:10;" d="
				M325.28,395.741c0,0-1.733-39.428-14.731-62.825"/>
			
				<use xlink:href="#XMLID_3_"  style="overflow:visible;fill:none;stroke:#263238;stroke-linecap:round;stroke-linejoin:round;stroke-miterlimit:10;"/>
		</g>
		<g>
			<path style="fill:#263238;stroke:#616161;stroke-linecap:round;stroke-linejoin:round;stroke-miterlimit:10;" d="
				M220.353,424.987c0,0-7.903-12.389-13.884-18.797c-5.981-6.408-22.428-1.922-28.623-1.068
				c-6.194,0.854-19.865,9.398-22.428,10.68c-2.563,1.282,1.068,4.058,4.699,4.913c3.631,0.854,7.476-2.563,11.107-3.204
				c3.631-0.641,2.35,1.068,7.476,5.126c5.126,4.058,7.049,7.903,15.379,9.826c8.33,1.922,17.729,0.854,23.283-1.068
				C222.916,429.472,220.353,424.987,220.353,424.987z"/>
			<path style="fill:#263238;stroke:#616161;stroke-linecap:round;stroke-linejoin:round;stroke-miterlimit:10;" d="M217.79,420.928
				c0,0-6.835,0.641-10.68,2.777c-3.845,2.136-4.699,7.049-2.35,8.117c2.35,1.068,9.612,1.709,14.311-0.214
				c4.699-1.922,4.486-4.272,3.418-7.69C221.421,420.501,217.79,420.928,217.79,420.928z"/>
			<path style="fill:#263238;stroke:#616161;stroke-linecap:round;stroke-linejoin:round;stroke-miterlimit:10;" d="
				M186.604,401.277c0,0-5.767-2.35-8.758-0.427c-2.99,1.922-4.058,4.058-3.845,7.903c0.214,3.845-1.709,11.321-2.136,14.952
				s1.068,4.486,3.845,4.913c2.777,0.427,4.059-1.922,5.126-5.34c1.068-3.418,3.418-13.884,4.699-16.447
				C186.818,404.267,186.604,401.277,186.604,401.277z"/>
			<path style="fill:#263238;stroke:#616161;stroke-linecap:round;stroke-linejoin:round;stroke-miterlimit:10;" d="
				M197.925,402.345c0,0-2.136-3.845-5.554-3.845c-3.418,0-7.476,0-7.69,2.99c-0.214,2.99-2.136,14.952-4.272,19.651
				c-2.136,4.699,0.641,7.476,3.845,7.476s3.418-0.427,6.408-5.554c2.99-5.126,5.126-14.952,5.126-14.952"/>
			<path style="fill:#263238;stroke:#616161;stroke-linecap:round;stroke-linejoin:round;stroke-miterlimit:10;" d="M208.605,409.18
				c0,0-2.563-7.049-6.408-7.69c-3.845-0.641-6.835-0.427-7.049,3.631c-0.214,4.059-0.854,11.962-3.418,16.661
				s-4.699,6.835-1.495,7.903c3.204,1.068,5.34,1.282,7.903-1.495c2.563-2.777,6.408-14.952,6.408-15.593"/>
		</g>
		<g>
			<path style="fill:#474747;stroke:#263238;stroke-linecap:round;stroke-linejoin:round;stroke-miterlimit:10;" d="
				M278.766,207.486c0,0,1.769,21.225,1.327,39.797c-0.442,18.572,17.245,31.837,27.858,38.912
				c10.612,7.075,20.34,10.612,24.762,13.266c4.422,2.653,6.633,6.191,6.633,6.191s4.864-7.075,12.823-10.17
				c7.959-3.095,20.783-12.823,23.436-23.878c2.653-11.055-2.653-34.49-30.069-52.178c-27.415-17.687-60.579-16.361-60.579-16.361
				L278.766,207.486z"/>
			<g>
				<defs>
					<path id="XMLID_1_" d="M289.368,208.184c0,0,0,18.696,0.984,22.632c0.984,3.936,7.544,22.632,9.184,27.88
						c1.64,5.248,14.432,28.536,17.384,32.144s15.744-5.248,15.744-5.248l7.216,15.744c0,0,15.588-25.879,19.196-32.111
						c3.608-6.232,5.657-13.124,3.033-22.964c-2.624-9.84-2.877-10.197-19.277-18.069c-16.4-7.872-40.344-17.056-44.936-20.336
						C293.304,204.576,290.024,205.888,289.368,208.184z"/>
				</defs>
				<use xlink:href="#XMLID_1_"  style="overflow:visible;fill:#FFFFFF;"/>
				<clipPath id="XMLID_00000031910474955419267490000011758961508451281846_">
					<use xlink:href="#XMLID_1_"  style="overflow:visible;"/>
				</clipPath>
				<path style="clip-path:url(#XMLID_00000031910474955419267490000011758961508451281846_);fill:#C6FF00;" d="M362.109,246.261
					c-2.624-9.84-2.877-10.197-19.277-18.069c-5.176-2.484-11.103-5.099-16.936-7.618c6.753,9.609,19.545,28.631,21.26,37.209
					c2.346,11.73-10.557,23.069-22.286,28.933c-3.524,1.762-6.019,3.169-7.793,4.278c2.578,2.542,11.073-2.485,14.314-4.562
					l21.24-15.747c0,0,2.303,0.393,3.951,2.778c1.057-1.782,1.926-3.256,2.495-4.239
					C362.684,262.992,364.733,256.101,362.109,246.261z"/>
				<path style="opacity:0.5;clip-path:url(#XMLID_00000031910474955419267490000011758961508451281846_);fill:#FFFFFF;" d="
					M362.109,246.261c-2.624-9.84-2.877-10.197-19.277-18.069c-5.176-2.484-11.103-5.099-16.936-7.618
					c6.753,9.609,19.545,28.631,21.26,37.209c2.346,11.73-10.557,23.069-22.286,28.933c-3.524,1.762-6.019,3.169-7.793,4.278
					c2.578,2.542,11.073-2.485,14.314-4.562l21.24-15.747c0,0,2.303,0.393,3.951,2.778c1.057-1.782,1.926-3.256,2.495-4.239
					C362.684,262.992,364.733,256.101,362.109,246.261z"/>
				
					<use xlink:href="#XMLID_1_"  style="overflow:visible;fill:none;stroke:#263238;stroke-linecap:round;stroke-linejoin:round;stroke-miterlimit:10;"/>
			</g>
			<path style="fill:#263238;stroke:#263238;stroke-linecap:round;stroke-linejoin:round;stroke-miterlimit:10;" d="M291.68,206.896
				c0,0-6.638,5.31-7.965,13.94c-1.328,8.629,1.328,9.957,5.31,5.974c3.983-3.983,7.302-8.629,7.302-8.629s-3.319,5.31,1.328,6.638
				c4.646,1.327,13.94-3.983,17.258-5.31C318.232,218.181,310.93,194.284,291.68,206.896z"/>
			<g>
				<g>
					<path style="fill:#263238;stroke:#263238;stroke-linecap:round;stroke-linejoin:round;stroke-miterlimit:10;" d="
						M291.664,236.392c0,0,1.968,3.608,13.448,5.904c11.48,2.296,26.896,1.64,31.816,0.328c4.92-1.312,13.448-4.92,13.448-4.92
						s2.952-0.328,2.624,2.296s-7.544,3.936-7.544,3.936s-1.64,10.168-4.592,13.12c-2.952,2.952-17.712,4.92-23.944,3.936
						c-6.232-0.984-8.2-10.168-9.184-11.48s-1.968-3.28-3.936-3.28s-1.968,7.216-1.64,10.824c0.328,3.608,0.656,1.64-2.624,1.64
						c-3.28,0-8.528-3.608-9.184-11.152C289.696,240,288.056,236.72,291.664,236.392z"/>
				</g>
				<g>
					<path style="fill:#C6FF00;" d="M308.701,247.559c0,0,1.406,8.434,5.271,9.839c3.865,1.406,4.568,1.406,10.542-3.514
						s13.704-3.163,13.704-3.163s4.217-4.568,4.217-6.325c0-1.757-1.405-1.054-1.405-1.054s-2.648,1.718-14.425,2.279
						c-4.212,0.201-18.255-0.873-18.255-0.873L308.701,247.559z"/>
					<path style="fill:#C6FF00;" d="M301.928,243.041l0.112,3.477c0,0-0.112,3.141-3.814,4.262
						c-3.702,1.122-7.066,0.112-7.066,0.112s-1.346-9.871-1.346-10.992c0-1.122,0.449-1.57,0.449-1.57
						S293.74,242.256,301.928,243.041z"/>
					<path style="fill:#C6FF00;" d="M340.105,252.962c0,0.896-0.941,1.622-2.103,1.622c-1.161,0-2.103-0.726-2.103-1.622
						c0-0.896,0.941-1.622,2.103-1.622C339.164,251.34,340.105,252.067,340.105,252.962z"/>
				</g>
			</g>
			<path style="fill:#FFFFFF;stroke:#263238;stroke-linecap:round;stroke-linejoin:round;stroke-miterlimit:10;" d="
				M303.144,247.872c0,0-2.296,16.072-3.608,20.336c-1.312,4.264,11.152,2.296,15.088,1.64"/>
			<path style="fill:none;stroke:#263238;stroke-linecap:round;stroke-linejoin:round;stroke-miterlimit:10;" d="M332.664,285.592
				c0,0,9.512-5.904,17.056-12.136"/>
			<path style="fill:none;stroke:#263238;stroke-width:3;stroke-linecap:round;stroke-linejoin:round;stroke-miterlimit:10;" d="
				M310.032,240.984c0,0,1.61-6.436,18.356-5.097"/>
			<path style="fill:none;stroke:#263238;stroke-width:3;stroke-linecap:round;stroke-linejoin:round;stroke-miterlimit:10;" d="
				M300.848,239.344c0,0-3.28-5.576-8.528-5.904"/>
			<g>
				<polygon style="fill:#FFFFFF;stroke:#263238;stroke-linecap:round;stroke-linejoin:round;stroke-miterlimit:10;" points="
					339.345,305.651 334.632,328.231 341.192,329.215 				"/>
				<g>
					<defs>
						<path id="XMLID_2_" d="M276.422,206.804c0,0,29.316,17.043,48.772,25.444c19.456,8.402,44.219,21.667,45.987,32.722
							c1.769,11.055-10.612,21.225-15.476,25.204c-4.864,3.98-14.592,13.708-14.592,13.708s23.878-13.265,32.279-19.456
							c8.402-6.19,11.497-16.803,7.959-35.817c-3.538-19.014-5.748-48.198-16.361-64.559c-10.612-16.361-36.701-7.517-55.715,0.884
							C290.262,193.336,276.422,206.804,276.422,206.804z"/>
					</defs>
					<use xlink:href="#XMLID_2_"  style="overflow:visible;fill:#616161;"/>
					<clipPath id="XMLID_00000116219649352153515230000016495101045665120410_">
						<use xlink:href="#XMLID_2_"  style="overflow:visible;"/>
					</clipPath>
					<path style="opacity:0.3;clip-path:url(#XMLID_00000116219649352153515230000016495101045665120410_);" d="M303.756,210.082
						c0,0,18.377,10.948,33.234,18.768c14.858,7.82,33.234,19.55,37.535,26.197c4.301,6.647,3.128,10.557-0.782,17.595
						c-3.91,7.038-8.993,10.948-3.519,11.339c5.474,0.391,10.948-10.166,10.948-18.768c0-8.602-1.564-17.204-3.91-31.67
						c-2.346-14.467-8.993-43.009-15.64-50.047c-6.647-7.038-18.377-5.865-30.497,2.346c-12.121,8.211,11.339,12.121,8.992,18.378
						c-1.665,4.436-11.905,0.09-14.678-0.7c-9.344-2.661-13.682-2.259-22.753,1.479C299.939,206.13,301.915,208.985,303.756,210.082
						z"/>
					
						<use xlink:href="#XMLID_2_"  style="overflow:visible;fill:none;stroke:#263238;stroke-linecap:round;stroke-linejoin:round;stroke-miterlimit:10;"/>
				</g>
			</g>
		</g>
		<g>
			<defs>
				<path id="XMLID_4_" d="M395.038,294.788c0,0-12.998,0-20.797,21.23c-7.799,21.23-16.465,74.957-16.465,74.957
					s-19.064,14.731-33.362,21.664c-14.298,6.932-24.263,10.399-24.263,10.399s6.676,13.467,6.066,18.631
					c-0.216,1.832,2.158,4.386,2.158,4.386s35.97-2.653,56.334-6.552c20.364-3.899,45.494-12.998,48.96-31.629
					c3.466-18.631,17.734-60.297,12.102-71.562"/>
			</defs>
			<use xlink:href="#XMLID_4_"  style="overflow:visible;fill:#616161;"/>
			<clipPath id="XMLID_00000170279015459272846310000015296074843323112368_">
				<use xlink:href="#XMLID_4_"  style="overflow:visible;"/>
			</clipPath>
			<path style="opacity:0.3;clip-path:url(#XMLID_00000170279015459272846310000015296074843323112368_);" d="M395.038,294.788
				c0,0-2.12,0.002-5.16,1.399L390,297.5c0,0,7-0.5,13.5,9.5s4.5,17.5,6.5,42.5s0.5,48.5-4,48.5s-17.5-5.5-15.5-2.5s5,5.5,5,9.5
				s-9.5-7.5-12-7.5s-1,1.5,0.5,10s0,1.5-16,6.5s-41,24-47.5,26.5c-4.156,1.599-10.352,4.217-14.284,5.9c0,0.464,0,0.468,0,0.468
				s38.128-3.466,58.492-7.366c20.364-3.899,45.494-12.998,48.96-31.629c3.466-18.631,17.764-61.525,12.132-72.79L395.038,294.788z"
				/>
			
				<path style="clip-path:url(#XMLID_00000170279015459272846310000015296074843323112368_);fill:none;stroke:#263238;stroke-linecap:round;stroke-linejoin:round;stroke-miterlimit:10;" d="
				M360.376,392.275c0,0,15.165,1.733,22.53,10.832"/>
			
				<path style="clip-path:url(#XMLID_00000170279015459272846310000015296074843323112368_);fill:none;stroke:#263238;stroke-linecap:round;stroke-linejoin:round;stroke-miterlimit:10;" d="
				M373.807,393.574c0,0,10.399-0.433,16.898,10.832"/>
			
				<use xlink:href="#XMLID_4_"  style="overflow:visible;fill:none;stroke:#263238;stroke-linecap:round;stroke-linejoin:round;stroke-miterlimit:10;"/>
		</g>
		<g>
			<path style="fill:#263238;stroke:#616161;stroke-linecap:round;stroke-linejoin:round;stroke-miterlimit:10;" d="
				M309.943,434.063c-0.384-2.102-1.159-4.11-2.314-5.907c-1.226-1.908-2.941-4.25-4.447-5.128
				c-2.709-1.58-8.353,0.226-12.191,0.677s-5.418-1.806-12.868-7.676c-7.45-5.87-40.41-9.933-44.699-9.933
				c-4.289,0-8.353,2.258-16.029,2.709c-7.676,0.451-9.933,2.709-4.064,6.321c5.87,3.612,13.997,2.258,19.415,0.677
				c5.418-1.58,9.707,6.998,11.288,6.998c1.58,0,0.226,1.58-2.709,2.483c-2.935,0.903-9.933,0-14.223,0.226
				c-4.289,0.226-10.385,5.418-7.901,7.224c2.483,1.806,8.804,1.58,15.803,1.58c6.998,0,18.512-0.903,20.995-0.452
				c2.483,0.452,9.03,5.192,18.738,8.579s18.06,0.903,19.415,0.677c1.354-0.226,9.707,3.838,14.222,2.935
				C311.526,445.424,310.719,438.306,309.943,434.063z"/>
			<path style="fill:#263238;stroke:#616161;stroke-linecap:round;stroke-linejoin:round;stroke-miterlimit:10;" d="
				M253.065,403.386c0,0-6.773-3.386-10.611-3.386s-4.967,3.838-4.967,7.45c0,3.612-1.129,13.32-2.032,16.48
				c-0.903,3.161,0.903,5.418,4.967,4.741c4.064-0.677,7.224-16.48,7.901-20.318c0.677-3.838,4.741-2.032,6.095-2.935
				C255.774,404.515,253.065,403.386,253.065,403.386z"/>
			<path style="fill:#263238;stroke:#616161;stroke-linecap:round;stroke-linejoin:round;stroke-miterlimit:10;" d="
				M265.933,406.547c0,0-5.418-4.741-9.256-5.192c-3.838-0.451-7.901,1.129-8.804,4.741c-0.903,3.612-0.452,11.062-1.806,14.674
				c-1.355,3.612-4.741,8.579-1.58,9.256c3.161,0.677,5.418-0.226,7.45-2.483c2.032-2.258,5.192-7.901,7.45-11.513
				C261.644,412.417,265.933,406.547,265.933,406.547z"/>
			<path style="fill:#263238;stroke:#616161;stroke-linecap:round;stroke-linejoin:round;stroke-miterlimit:10;" d="M285.348,423.93
				c0,0-4.064-10.836-10.61-14.9s-11.739-5.418-13.771-1.355c-2.032,4.064-2.709,10.385-5.87,15.577
				c-3.161,5.192-2.032,6.773,2.483,6.321c4.515-0.451,6.547-6.547,9.707-10.61c3.161-4.064,3.386-2.935,3.386-2.935"/>
		</g>
	</g>
</g>
<g id="Device_1">
	<g>
		
			<rect x="134.575" y="438.347" style="fill:#FFFFFF;stroke:#263238;stroke-linecap:round;stroke-linejoin:round;stroke-miterlimit:10;" width="7.791" height="2.597"/>
		
			<rect x="145.541" y="438.347" style="fill:#FFFFFF;stroke:#263238;stroke-linecap:round;stroke-linejoin:round;stroke-miterlimit:10;" width="7.791" height="2.597"/>
		
			<rect x="156.506" y="438.347" style="fill:#FFFFFF;stroke:#263238;stroke-linecap:round;stroke-linejoin:round;stroke-miterlimit:10;" width="7.791" height="2.597"/>
		
			<rect x="167.471" y="438.347" style="fill:#FFFFFF;stroke:#263238;stroke-linecap:round;stroke-linejoin:round;stroke-miterlimit:10;" width="7.791" height="2.597"/>
		
			<rect x="178.436" y="438.347" style="fill:#FFFFFF;stroke:#263238;stroke-linecap:round;stroke-linejoin:round;stroke-miterlimit:10;" width="7.791" height="2.597"/>
		
			<rect x="189.401" y="438.347" style="fill:#FFFFFF;stroke:#263238;stroke-linecap:round;stroke-linejoin:round;stroke-miterlimit:10;" width="7.791" height="2.597"/>
		
			<rect x="200.367" y="438.347" style="fill:#FFFFFF;stroke:#263238;stroke-linecap:round;stroke-linejoin:round;stroke-miterlimit:10;" width="7.791" height="2.597"/>
		
			<rect x="211.332" y="438.347" style="fill:#FFFFFF;stroke:#263238;stroke-linecap:round;stroke-linejoin:round;stroke-miterlimit:10;" width="7.791" height="2.597"/>
		
			<rect x="222.297" y="438.347" style="fill:#FFFFFF;stroke:#263238;stroke-linecap:round;stroke-linejoin:round;stroke-miterlimit:10;" width="7.791" height="2.597"/>
		
			<rect x="233.262" y="438.347" style="fill:#FFFFFF;stroke:#263238;stroke-linecap:round;stroke-linejoin:round;stroke-miterlimit:10;" width="7.791" height="2.597"/>
		
			<rect x="244.228" y="438.347" style="fill:#FFFFFF;stroke:#263238;stroke-linecap:round;stroke-linejoin:round;stroke-miterlimit:10;" width="7.791" height="2.597"/>
		
			<rect x="255.193" y="438.347" style="fill:#FFFFFF;stroke:#263238;stroke-linecap:round;stroke-linejoin:round;stroke-miterlimit:10;" width="7.791" height="2.597"/>
		
			<rect x="266.158" y="438.347" style="fill:#FFFFFF;stroke:#263238;stroke-linecap:round;stroke-linejoin:round;stroke-miterlimit:10;" width="7.791" height="2.597"/>
		
			<rect x="277.123" y="438.347" style="fill:none;stroke:#263238;stroke-linecap:round;stroke-linejoin:round;stroke-miterlimit:10;" width="7.791" height="2.597"/>
		
			<rect x="288.089" y="438.347" style="fill:none;stroke:#263238;stroke-linecap:round;stroke-linejoin:round;stroke-miterlimit:10;" width="7.791" height="2.597"/>
		
			<rect x="129.093" y="440.54" style="fill:#263238;stroke:#263238;stroke-linecap:round;stroke-linejoin:round;stroke-miterlimit:10;" width="169.288" height="4.733"/>
		
			<rect x="241.631" y="440.54" style="fill:#FFFFFF;stroke:#263238;stroke-linecap:round;stroke-linejoin:round;stroke-miterlimit:10;" width="56.75" height="4.733"/>
	</g>
	<g>
		<polygon style="fill:#FFFFFF;stroke:#263238;stroke-linecap:round;stroke-linejoin:round;stroke-miterlimit:10;" points="
			205.979,387.04 95.479,387.04 66.284,261.04 176.783,261.04 		"/>
		<polygon style="fill:#263238;stroke:#263238;stroke-linecap:round;stroke-linejoin:round;stroke-miterlimit:10;" points="
			199.479,387.04 88.979,387.04 59.784,261.04 170.283,261.04 		"/>
		<path style="fill:#FFFFFF;stroke:#263238;stroke-linecap:round;stroke-linejoin:round;stroke-miterlimit:10;" d="M148.103,337.54
			h-29.222L97.025,440.168c-0.589,2.766,1.52,5.372,4.348,5.372h67.237l-3.25-3.25h-36.71c-1.443,0-2.533-1.306-2.276-2.726
			L148.103,337.54z"/>
		<path style="fill:#616161;stroke:#263238;stroke-linecap:round;stroke-linejoin:round;stroke-miterlimit:10;" d="M101.373,445.54
			h21.657c-0.082-0.314-0.101-0.65-0.039-0.993l21.728-107.007h-25.838L97.025,440.168C96.436,442.934,98.545,445.54,101.373,445.54
			z"/>
	</g>
</g>
<g id="Table">
	<g>
		
			<rect x="53.381" y="444.873" style="fill:#263238;stroke:#263238;stroke-linecap:round;stroke-linejoin:round;stroke-miterlimit:10;" width="400" height="9.333"/>
		
			<rect x="329.518" y="444.873" style="fill:#FFFFFF;stroke:#263238;stroke-linecap:round;stroke-linejoin:round;stroke-miterlimit:10;" width="123.863" height="9.333"/>
	</g>
</g>
</svg>
